<?xml version="1.0" encoding="utf-8"?>
<!-- Generator: Adobe Illustrator 27.1.0, SVG Export Plug-In . SVG Version: 6.00 Build 0)  -->
<svg version="1.1" id="Layer_1" xmlns="http://www.w3.org/2000/svg" xmlns:xlink="http://www.w3.org/1999/xlink" x="0px" y="0px"
	 viewBox="0 0 28 40" style="enable-background:new 0 0 28 40;" xml:space="preserve">
<style type="text/css">
	.st0{fill:#FFFFFF;}
</style>
<g>
	<path class="st0" d="M5.44,4.4c0.05-0.22,0.11-0.42,0.19-0.59c0.21-0.5,0.21-1.03,0.02-1.69C5.58,1.91,5.52,1.69,5.57,1.46
		c0.04-0.14,0.16-0.27,0.32-0.34c0.08-0.03,0.15-0.05,0.22-0.05c0.06,0,0.12,0.01,0.18,0.04c0.17,0.09,0.3,0.19,0.38,0.3
		c0.16,0.22,0.3,0.46,0.44,0.69c0.07,0.11,0.13,0.22,0.2,0.33c0.04,0.07,0.05,0.11-0.04,0.18C6.66,3.1,6.31,3.71,6.22,4.42
		C6.2,4.59,6.14,4.67,5.99,4.72c-0.16,0.06-0.3,0.15-0.45,0.23C5.51,4.98,5.47,5,5.43,5.03C5.36,4.81,5.4,4.59,5.44,4.4z"/>
	<path class="st0" d="M11.99,28.07c0.01,0.18-0.04,0.33-0.13,0.43c-0.08,0.08-0.2,0.13-0.34,0.13c-0.27,0-0.56-0.03-0.86-0.08
		l-0.03,0c-0.38-0.07-0.78-0.14-1.11-0.35c-0.13-0.08-0.18-0.17-0.18-0.31c0-0.11-0.01-0.21-0.02-0.32c0-0.05-0.01-0.09-0.01-0.14
		l0-0.06l-0.03,0c0.02-0.16,0.03-0.31,0.05-0.47c0.04-0.4,0.08-0.81,0.14-1.21c0.1-0.58,0.79-1.22,1.37-1.28
		c0.32-0.03,0.62,0.06,0.85,0.25c0.25,0.2,0.4,0.51,0.43,0.87c0.03,0.36-0.01,0.73-0.05,1.08c-0.02,0.14-0.04,0.29-0.05,0.44
		C11.99,27.41,11.97,27.75,11.99,28.07z"/>
	<path class="st0" d="M11.63,34.97c-0.23,0.29-0.54,0.31-0.83,0.29c-0.06-0.01-0.11-0.01-0.17-0.02c-0.13-0.01-0.27-0.03-0.4-0.05
		c-0.08-0.01-0.16-0.05-0.24-0.11c-0.18-0.12-0.19-0.14-0.1-0.34c0.05-0.1,0.1-0.21,0.14-0.31c0.14-0.31,0.29-0.64,0.45-0.95
		c0.11-0.21,0.25-0.39,0.4-0.58c0.08-0.1,0.32-0.13,0.42-0.06c0,0,0.02,0.02,0.03,0.1c0.02,0.14,0.04,0.28,0.06,0.42
		c0.03,0.24,0.07,0.49,0.11,0.74c0.04,0.22,0.11,0.44,0.17,0.65C11.71,34.84,11.7,34.89,11.63,34.97z"/>
	<path class="st0" d="M12.25,31.16c0.03-0.09,0.07-0.18,0.11-0.27c0.01-0.02,0.02-0.04,0.02-0.05c0.02,0.03,0.03,0.06,0.05,0.09
		c0.06,0.1,0.12,0.21,0.17,0.32c0.06,0.13,0.11,0.26,0.17,0.39c0.09,0.22,0.18,0.44,0.29,0.65c0.35,0.66,0.77,1.18,1.3,1.58
		c0.17,0.13,0.31,0.23,0.45,0.33c0.1,0.07,0.12,0.14,0.06,0.23c-0.3,0.57-0.63,0.89-1.06,1.06c-0.35,0.14-0.86,0.13-1.12-0.33
		c-0.31-0.54-0.5-1.06-0.56-1.58C12.04,32.81,11.99,31.98,12.25,31.16z"/>
	<path class="st0" d="M13.72,31.45c-0.02,0.05-0.07,0.1-0.14,0.14c-0.03-0.02-0.08-0.07-0.09-0.1c-0.05-0.12-0.1-0.24-0.16-0.36
		c-0.14-0.31-0.28-0.62-0.35-0.95c-0.23-1.11-0.33-2.03-0.31-2.87c0.01-0.41,0.05-0.79,0.12-1.14c0.08-0.4,0.61-1.02,1.29-1.13
		c0.09-0.01,0.18-0.02,0.27-0.02c0.34,0,0.62,0.12,0.85,0.36c0.2,0.21,0.28,0.41,0.27,0.63c-0.02,0.09-0.03,0.17-0.04,0.26
		c-0.03,0.18-0.06,0.38-0.11,0.55c-0.23,0.75-0.45,1.44-0.68,2.11C14.35,29.76,14.07,30.53,13.72,31.45z"/>
	<path class="st0" d="M15.47,28.21c0.24-0.59,0.46-1.2,0.67-1.79l0.13-0.36c0.11-0.29,0.29-0.53,0.54-0.71
		c0.09-0.07,0.18-0.1,0.28-0.1c0.06,0,0.13,0.01,0.2,0.03c0.45,0.14,0.67,0.46,0.74,1.05c0.01,0.05,0.01,0.11,0.01,0.16
		c0,0.02,0,0.05,0,0.07c-0.03,0.51-0.11,1.17-0.57,1.69c-0.06,0.07-0.14,0.15-0.21,0.18c-0.32,0.11-0.65,0.21-0.97,0.31
		c-0.11,0.03-0.22,0.07-0.32,0.1c-0.02,0.01-0.02,0.01-0.03,0.01c-0.05-0.01-0.11-0.01-0.17-0.01c-0.09,0-0.22-0.01-0.25-0.04
		C15.41,28.63,15.38,28.42,15.47,28.21z"/>
	<path class="st0" d="M8.82,25.73l-0.01,0.05c-0.09,0.6-0.14,1.21-0.2,1.93c-0.02,0.29-0.1,0.37-0.36,0.39
		c-0.14,0.01-0.29,0.01-0.43,0.01c-0.07,0-0.13,0-0.2,0H7.57l0,0.01c-0.1-0.02-0.2-0.04-0.3-0.05c-0.29-0.05-0.59-0.1-0.88-0.16
		c-0.16-0.03-0.23-0.13-0.26-0.34c-0.07-0.63-0.04-1.26,0.09-1.89c0.1-0.46,0.34-1.06,0.97-1.36c0.17-0.08,0.37-0.13,0.56-0.13
		c0.2,0,0.4,0.04,0.57,0.13c0.2,0.11,0.46,0.33,0.53,0.78C8.88,25.31,8.85,25.51,8.82,25.73z"/>
	<path class="st0" d="M5.44,27.48c0.02,0.29-0.04,0.38-0.34,0.51c-0.28,0.12-0.6,0.16-0.99,0.13c-0.25-0.02-0.4-0.14-0.47-0.39
		c-0.15-0.47-0.22-0.92-0.2-1.2l0-0.01c0-0.88,0.08-1.61,0.43-2.29c0.15-0.29,0.35-0.42,0.67-0.42c0.05,0,0.1,0,0.16,0.01
		c0.61,0.07,0.94,0.43,1.02,1.12c0,0.02-0.01,0.05-0.01,0.09c0,0.01-0.01,0.03-0.01,0.04C5.52,25.82,5.37,26.63,5.44,27.48z"/>
	<path class="st0" d="M2.84,26.57c0,0.36,0.07,0.73,0.13,1.08C2.98,27.73,3,27.82,3.01,27.9c0.03,0.16-0.02,0.27-0.14,0.34
		l-0.01,0.01C2.7,28.33,2.58,28.4,2.42,28.3c-0.12-0.08-0.18-0.16-0.21-0.28c-0.04-0.18-0.09-0.37-0.13-0.54
		C2,27.15,1.91,26.8,1.86,26.46c-0.09-0.63-0.06-1.28,0.09-1.94c0.05-0.2,0.27-0.37,0.45-0.4c0.04,0.02,0.08,0.04,0.12,0.06
		c0.11,0.05,0.21,0.11,0.31,0.17c0.11,0.08,0.12,0.19,0.1,0.36C2.89,25.23,2.83,25.9,2.84,26.57z"/>
	<path class="st0" d="M0.81,24.46c0.03-0.06,0.11-0.1,0.17-0.14C1,24.32,1.02,24.31,1.03,24.3c0.11,0.01,0.2,0.05,0.26,0.13
		c0.05,0.06,0.08,0.15,0.06,0.22c-0.02,0.09-0.03,0.18-0.05,0.27c-0.05,0.26-0.1,0.52-0.14,0.78c-0.11,0.7,0.02,1.36,0.16,1.91
		c0.06,0.25,0.14,0.5,0.21,0.73c0.04,0.14,0.09,0.29,0.13,0.43c0.01,0.05,0.02,0.11,0.02,0.18c-0.03,0.4-0.07,0.81-0.1,1.21
		l-0.03,0.33c0,0.01,0,0.03,0,0.05c0,0.02,0,0.05-0.01,0.05c-0.01,0.02-0.02,0.03-0.03,0.04c0,0-0.01-0.01-0.02-0.03
		c-0.01-0.02-0.02-0.04-0.03-0.06l-0.01-0.02c-0.71-1.35-1.06-2.78-1.05-4.23C0.41,25.6,0.54,25,0.81,24.46z"/>
	<path class="st0" d="M0.75,33.24C0.3,32.13,0.33,31,0.42,30.1c0.01,0.01,0.01,0.03,0.02,0.04c0.24,0.54,0.55,1.17,1.03,1.72
		c0.01,0.01,0.02,0.06,0.02,0.08c-0.22,0.39-0.45,0.79-0.67,1.18L0.75,33.24z"/>
	<path class="st0" d="M5.56,38.59C4.85,38.9,4.13,39,3.42,38.88c-1.35-0.22-2.3-1.22-2.48-2.6c-0.08-0.65,0.01-1.33,0.3-2.21
		c0.61-1.83,1.8-3.05,3.53-3.61c0.38-0.12,0.78-0.18,1.19-0.18c0.22,0,0.45,0.02,0.67,0.05c0.03,0,0.06,0.01,0.1,0.02
		c-0.03,0.02-0.06,0.04-0.08,0.06c-0.88,0.62-1.58,1.38-2.07,2.24c-0.52,0.92-0.76,1.94-0.7,3.03l0,0.02
		c0.01,0.12,0.02,0.34,0.24,0.34c0.13,0,0.2-0.3,0.2-0.37c0.17-1.93,1.04-3.44,2.58-4.5c0.48-0.33,1.14-0.72,1.92-0.82
		c1.1-0.14,1.96-0.04,2.72,0.32c0.02,0.01,0.03,0.02,0.05,0.03c0,0.01,0,0.02,0,0.03c-0.02,0.08-0.04,0.16-0.07,0.24
		c-0.05,0.17-0.1,0.34-0.13,0.52c-0.05,0.27-0.08,0.4-0.37,0.42c-0.2,0.01-0.44,0.18-0.57,0.35c-0.22,0.27-0.51,0.63-0.71,1.02
		c-0.26,0.52-0.5,1.05-0.73,1.57c-0.09,0.19-0.17,0.39-0.26,0.58C8.11,36.88,7.03,37.94,5.56,38.59z"/>
	<path class="st0" d="M27.63,25.75c-0.05,0.76-0.29,1.49-0.51,2.19c-0.05,0.15-0.1,0.3-0.14,0.45c-0.09,0.3-0.22,0.59-0.33,0.84
		c-0.28,0.63-0.8,1.02-1.65,1.23c-0.19,0.05-0.4,0.08-0.59,0.11c-0.08,0.01-0.15,0.02-0.23,0.04c-0.42,0.07-0.82,0.21-1.26,0.45
		c-1.36,0.72-2.46,1.6-3.37,2.69c-0.38,0.46-0.75,0.93-1.12,1.38c-0.23,0.3-0.48,0.6-0.72,0.9c-0.07,0.08-0.13,0.17-0.2,0.25
		c-0.24,0.3-0.49,0.61-0.76,0.88c-0.32,0.31-0.67,0.48-1.07,0.52c-0.51,0.05-1-0.04-1.6-0.28c-0.9-0.37-1.68-0.56-2.44-0.6
		c-0.15-0.01-0.29-0.01-0.44-0.01c-0.24,0-0.48,0.01-0.71,0.02c-0.16,0.01-0.32,0.01-0.48,0.01c-0.2,0-0.4,0.01-0.6,0.01
		c-0.17,0-0.35,0.01-0.52,0.01c-0.01,0-0.01,0-0.02,0l0.61-1.14c0.72,0.33,1.65,0.59,2.6-0.08c0.01,0.01,0.02,0.03,0.03,0.04
		c0.41,0.66,1.23,0.77,1.85,0.59c0.46-0.14,0.85-0.43,1.23-0.91c0.15-0.19,0.31-0.42,0.4-0.67c0.13-0.36,0.19-0.77-0.32-1.06
		c-0.13-0.07-0.25-0.17-0.37-0.27c-0.03-0.03-0.07-0.05-0.1-0.08c0.33-0.28,0.65-0.3,1.01-0.09c0.45,0.27,1.19,0.19,1.54-0.35
		c0.06-0.1,0.15-0.18,0.23-0.27c0.08-0.09,0.17-0.17,0.24-0.28c0.2-0.3,0.39-0.62,0.57-0.92l0.06-0.1c0.15-0.26,0.3-0.52,0.45-0.78
		c0.29-0.51,0.6-1.05,0.92-1.55c0.32-0.5,0.74-0.95,1.23-1.33c0.35-0.27,0.7-0.34,1.06-0.24c0.05,0.01,0.1,0.02,0.15,0.03
		c0.03,0.01,0.06,0.01,0.09,0.02c0.58,0.13,1.08-0.1,1.35-0.63c0.19-0.39,0.25-0.78,0.15-1.17c-0.23-0.99-0.2-1.98-0.15-2.91
		c0.02-0.41,0.15-0.74,0.41-1.11c0.41-0.57,0.55-1.24,0.67-1.99c0.02-0.12,0.04-0.25,0.05-0.38c0.03-0.26,0.07-0.54,0.15-0.79
		c0.24-0.75,0.63-1.23,1.21-1.48c0.15-0.06,0.32-0.08,0.49-0.09c0.06-0.01,0.13-0.01,0.18-0.02c0.01,0,0.04,0.02,0.06,0.04
		c0.03,0.04,0.05,0.07,0.08,0.11c0.08,0.11,0.16,0.22,0.2,0.33c0.27,0.75,0.25,1.36-0.05,1.91c-0.88,1.62-0.84,3.27,0.15,5.02
		C27.55,24.73,27.66,25.22,27.63,25.75z"/>
	<path class="st0" d="M26.97,15.67c-0.21-0.5-0.38-0.61-0.92-0.58c-0.39,0.02-0.74-0.04-1.07-0.18c-0.27-0.12-0.57-0.22-0.87-0.3
		c-0.98-0.27-1.56-0.87-1.77-1.82c-0.13-0.59-0.28-1.02-0.47-1.41c-0.33-0.65-0.78-1.38-1.58-1.86c-0.5-0.3-0.94-0.62-1.31-0.95
		C18.48,8.12,18,7.65,17.53,7.19c-0.2-0.2-0.4-0.39-0.61-0.59c-0.51-0.49-1.15-0.98-2.07-0.95c-0.6,0.02-1.14,0.19-1.59,0.51
		c-0.36,0.24-0.7,0.52-1.04,0.78c-0.19,0.15-0.4,0.31-0.6,0.46C10.67,8.11,9.78,8.12,8.9,7.42C8.42,7.03,8.04,6.54,7.71,6.1
		C7.57,5.91,7.37,5.72,7.15,5.57C6.86,5.38,6.59,5.32,6.34,5.39C5.85,5.52,5.51,5.75,5.3,6.08C5.22,6.21,5.15,6.36,5.08,6.49
		c-0.03,0.06-0.06,0.13-0.1,0.19C4.75,7.12,4.71,7.6,4.85,8.11c0.18,0.63,0.22,1.3,0.13,2.06c-0.1,0.86-0.19,1.88-0.15,2.93
		c0.02,0.48-0.07,0.94-0.26,1.41c-0.02,0.05-0.04,0.1-0.06,0.16c-0.02,0.05-0.03,0.09-0.05,0.14c-0.18,0.47-0.09,0.95,0,1.38
		c0.45-0.18,0.79-0.4,1.07-0.67c0.06-0.06,0.13-0.12,0.21-0.14c0.08-0.02,0.19-0.01,0.26,0.05c0.07,0.06,0.04,0.21,0,0.27L6,15.72
		c-0.07,0.12-0.15,0.25-0.26,0.33c-0.08,0.06-0.15,0.12-0.23,0.18c-0.36,0.29-0.74,0.58-1.14,0.83c-0.67,0.42-1.04,0.92-1.15,1.57
		c-0.03,0.18-0.05,0.38,0.04,0.58c0.19,0.43,0.16,0.89-0.11,1.28c-0.24,0.35-0.52,0.68-0.79,1c-0.06,0.06-0.11,0.13-0.17,0.19
		c-0.11,0.13-0.23,0.26-0.35,0.38c-0.15,0.15-0.3,0.31-0.43,0.48c-0.27,0.35-0.52,0.71-0.74,1.06c-0.05,0.08-0.09,0.18-0.12,0.29
		c0,0.01-0.01,0.02-0.01,0.03c0.31-0.23,0.73-0.42,1.19-0.05c0.21-0.23,0.48-0.35,0.85-0.36c0.35-0.01,0.61,0.16,0.83,0.36
		c0.35-0.45,0.88-0.71,1.4-0.69c0.47,0.01,0.9,0.26,1.2,0.68c0.06,0.08,0.12,0.16,0.19,0.24c0.02,0.02,0.03,0.04,0.05,0.06
		c0.39-0.5,0.94-0.74,1.64-0.71c0.69,0.03,1.2,0.35,1.51,0.94c0.58-0.59,1.2-0.82,1.89-0.71c0.72,0.11,1.2,0.54,1.48,1.31
		c0.5-0.46,1.03-0.67,1.61-0.65c0.62,0.02,1.14,0.29,1.53,0.81c0.34-0.37,0.68-0.67,1.14-0.67c0.09,0,0.19,0.01,0.29,0.04
		c0.61,0.15,1.02,0.47,1.24,0.99c0.04-0.05,0.07-0.09,0.09-0.13c0.4-0.68,0.47-1.32,0.22-1.98c-0.08-0.2-0.17-0.39-0.26-0.58
		c-0.06-0.13-0.13-0.27-0.19-0.4c-0.21-0.48-0.06-1.06,0.36-1.41c0.16-0.14,0.31-0.29,0.43-0.46c0.21-0.3,0.54-0.42,0.83-0.52
		c0.08-0.03,0.19-0.02,0.27,0.01c0.35,0.15,0.71,0.34,0.99,0.68l0.01,0.01c0.23,0.28,0.47,0.57,0.72,0.83
		c0.13,0.14,0.33,0.22,0.54,0.22c0.22,0.01,0.43-0.08,0.57-0.22c0.36-0.37,0.6-0.82,0.71-1.35c0.06-0.27,0.1-0.54,0.15-0.81
		c0.06-0.36,0.12-0.72,0.21-1.08c0.19-0.8,0.63-1.44,1.33-1.91c0.36-0.25,0.76-0.3,1.2-0.34c0.08-0.01,0.19-0.03,0.24-0.11
		C27.03,15.88,27,15.76,26.97,15.67z M5.53,14.42c-0.13-0.16-0.18-0.37-0.14-0.6c0.12-0.73,0.24-1.58,0.18-2.43
		c-0.02-0.33-0.05-0.67-0.08-1c-0.03-0.31-0.05-0.63-0.08-0.95c-0.02-0.24-0.02-0.5,0-0.75c0.04-0.57,0.31-1.06,0.81-1.45
		C6.38,7.1,6.6,7.06,6.84,7.11c0.28,0.06,0.53,0.24,0.65,0.47c0.07,0.14,0.13,0.28,0.18,0.42c0.04,0.1,0.08,0.21,0.12,0.31
		C7.93,8.6,8.05,8.9,8.16,9.18c0.31,0.77,0.64,1.57,1.18,2.25c0.21,0.27,0.31,0.57,0.31,0.98c0.02,0.38-0.23,0.7-0.74,0.92
		c-0.19,0.08-0.39,0.15-0.58,0.22c-0.05,0.02-0.1,0.04-0.16,0.05c-0.44,0.16-0.83,0.38-1.17,0.66c-0.23,0.19-0.52,0.39-0.9,0.39
		c-0.01,0-0.01,0-0.02,0C5.85,14.66,5.66,14.57,5.53,14.42z M11.26,18.51c-0.01,0.04-0.01,0.09-0.02,0.14
		c-0.01,0.12-0.03,0.28-0.07,0.43c-0.22,0.91-0.96,1.2-1.57,1.36c-0.08,0.02-0.15,0.03-0.22,0.03c-0.35,0-0.62-0.22-0.86-0.39
		C8.5,20.05,8.48,20.02,8.46,20c-0.02-0.02-0.04-0.04-0.06-0.06c-0.28-0.22-0.5-0.23-0.82-0.04c-0.05,0.03-0.09,0.06-0.13,0.08
		c-0.13,0.08-0.26,0.16-0.4,0.21c-0.19,0.07-0.41,0.1-0.6,0.08c-0.14-0.01-0.27-0.07-0.37-0.18c-0.12-0.14-0.18-0.33-0.16-0.53
		c0.02-0.28,0.09-0.58,0.2-0.9c0.42-1.19,1.02-2.3,1.79-3.3c0.13-0.17,0.29-0.35,0.55-0.41c0.33-0.09,0.49,0.08,0.57,0.23
		c0.02,0.04,0.04,0.07,0.06,0.07c0.03,0.01,0.07-0.01,0.13-0.04c0.06-0.03,0.13-0.06,0.19-0.09c0.06-0.03,0.13-0.06,0.19-0.09
		c0.35-0.19,0.61-0.01,0.85,0.2c0.13,0.13,0.24,0.29,0.3,0.44c0.3,0.87,0.47,1.79,0.53,2.83L11.26,18.51L11.26,18.51z M20.21,13.13
		l-0.08,0.08c-0.2,0.2-0.41,0.4-0.65,0.56c-0.68,0.43-1.24,0.92-1.72,1.5c-0.17,0.2-0.38,0.39-0.62,0.54
		c-0.19,0.12-0.41,0.18-0.65,0.18c-0.13,0-0.26-0.02-0.4-0.06c-0.21-0.06-0.44-0.17-0.67-0.32c-0.16-0.11-0.32-0.23-0.47-0.35
		c-0.19-0.15-0.39-0.3-0.59-0.43c-0.38-0.23-0.78-0.43-1.17-0.63l-0.17-0.09c-0.21-0.1-0.43-0.2-0.64-0.3
		c-0.18-0.08-0.37-0.17-0.56-0.26c-0.31-0.15-0.49-0.41-0.55-0.78c-0.07-0.45,0.03-0.85,0.3-1.27c0.28-0.42,0.59-0.9,0.83-1.41
		c0.25-0.53,0.45-1.09,0.63-1.62c0.14-0.43,0.4-0.77,0.78-1.07c0.27-0.21,0.42-0.23,0.74-0.21c0.01,0,0.02,0,0.03,0
		c0.65,0,1.08,0.4,1.5,0.79l0.04,0.03c0.24,0.22,0.48,0.45,0.71,0.67c0.4,0.39,0.82,0.78,1.25,1.15c0.21,0.18,0.46,0.33,0.69,0.48
		c0.16,0.1,0.33,0.2,0.49,0.32c0.28,0.2,0.54,0.42,0.77,0.66c0.27,0.27,0.42,0.64,0.45,1.09C20.52,12.67,20.42,12.93,20.21,13.13z"
		/>
	<path class="st0" d="M27.03,2.24c-0.2-0.22-0.47-0.34-0.82-0.35c-0.47-0.01-0.92,0.14-1.38,0.48c-0.27,0.2-0.55,0.42-0.81,0.63
		c-0.23,0.19-0.48,0.38-0.72,0.56c-0.32,0.24-0.67,0.48-1.07,0.72c-0.16,0.09-0.35,0.17-0.58,0.22c-0.55,0.12-0.98-0.16-1.33-0.45
		c-0.07-0.06-0.13-0.11-0.2-0.17c-0.36-0.31-0.73-0.62-1.16-0.85c-0.65-0.35-1.22-0.46-1.78-0.35c-0.35,0.07-0.7,0.15-1.04,0.23
		l-0.13,0.03C15.81,3,15.59,3.05,15.37,3.1C15,3.2,14.62,3.29,14.25,3.37C14,3.43,13.72,3.47,13.39,3.49
		c-0.68,0.05-1.33-0.14-1.96-0.32c-0.15-0.04-0.3-0.09-0.45-0.13C10.33,2.86,9.6,2.67,8.84,2.78C7.77,2.95,7.08,3.6,6.95,4.58
		c-0.01,0.09,0,0.11,0.09,0.14c0.5,0.16,0.92,0.44,1.24,0.83c0.17,0.2,0.33,0.41,0.49,0.61C8.95,6.37,9.13,6.6,9.31,6.82
		c0.32,0.38,0.67,0.52,1.05,0.4c0.3-0.09,0.61-0.25,1-0.49c0.2-0.13,0.39-0.3,0.56-0.46c0.05-0.05,0.1-0.09,0.15-0.14
		c0.72-0.65,1.46-1.04,2.27-1.19c0.17-0.03,0.37-0.07,0.56-0.07c0.02,0,0.04,0,0.07,0c0.79,0.04,1.51,0.34,2.14,0.89
		c0.45,0.4,0.89,0.82,1.31,1.24c0.17,0.17,0.34,0.33,0.51,0.5c0.05,0.05,0.1,0.11,0.15,0.16c0.08,0.09,0.16,0.17,0.25,0.24
		c0.23,0.18,0.48,0.35,0.71,0.52c0.11,0.08,0.22,0.15,0.33,0.23c0.05,0.04,0.1,0.07,0.15,0.11c0.09,0.07,0.18,0.13,0.27,0.19
		c1.22,0.76,1.76,1.97,2.13,3.05c0.07,0.2,0.12,0.41,0.17,0.61c0.02,0.06,0.03,0.13,0.05,0.19c0.13,0.52,0.48,0.86,1.09,1.06
		l0.11,0.04c0.33,0.11,0.67,0.22,1,0.35c0.26,0.1,0.52,0.11,0.8,0.09c-0.12-0.36-0.14-0.72-0.08-1.13c0.04-0.27,0.09-0.53,0.14-0.79
		l0.03-0.18c0.16-0.9,0.01-1.61-0.47-2.21c-0.43-0.54-0.46-1.18-0.08-1.81c0.32-0.53,0.41-1.12,0.45-1.62
		c0.07-0.9,0.16-1.93,0.65-2.86c0.13-0.25,0.21-0.54,0.29-0.82l0.03-0.11C27.16,2.53,27.14,2.36,27.03,2.24z M26.42,3.47
		c-0.02,0.07-0.04,0.14-0.07,0.21C26.3,3.84,26.25,4,26.21,4.16c-0.04,0.13-0.07,0.26-0.11,0.38c-0.12,0.4-0.24,0.81-0.34,1.23
		c-0.06,0.24-0.1,0.48-0.15,0.72c-0.03,0.16-0.06,0.33-0.1,0.5c-0.02,0.11-0.07,0.22-0.14,0.35c-0.1,0.18-0.27,0.3-0.46,0.34
		c-0.04,0.01-0.07,0.01-0.11,0.01c-0.16,0-0.31-0.06-0.44-0.17c-0.09-0.08-0.17-0.16-0.25-0.25C24.07,7.23,24.04,7.19,24,7.15
		C23.89,7.04,23.76,7,23.59,7.02c-0.25,0.04-0.45,0.04-0.63,0.01c-0.26-0.04-0.47-0.2-0.58-0.43c-0.11-0.24-0.1-0.51,0.03-0.75
		c0.16-0.29,0.36-0.5,0.62-0.65l0.06-0.03c0.34-0.2,0.69-0.41,1-0.65c0.22-0.17,0.42-0.38,0.6-0.6l0.05-0.05
		c0.12-0.14,0.24-0.28,0.35-0.42c0.11-0.13,0.22-0.27,0.34-0.41c0.08-0.09,0.2-0.17,0.32-0.21c0.14-0.05,0.29-0.04,0.4,0.03
		c0.12,0.07,0.2,0.19,0.23,0.35c0.01,0.05,0.01,0.11,0.01,0.16c0,0.01,0,0.02,0,0.02l0.06,0.02L26.42,3.47z"/>
</g>
</svg>
